<svg xmlns="http://www.w3.org/2000/svg" viewBox="0 0 1200 800" preserveAspectRatio="xMidYMid slice">
  <defs>
    <linearGradient id="bg" x1="0" y1="0" x2="0" y2="1">
      <stop offset="0%" stop-color="#1a140c"/>
      <stop offset="55%" stop-color="#0a1220"/>
      <stop offset="100%" stop-color="#061018"/>
    </linearGradient>
    <radialGradient id="glow" cx="78%" cy="18%" r="40%">
      <stop offset="0%" stop-color="#F5C542"/>
      <stop offset="100%" stop-color="rgba(245,197,66,0)"/>
    </radialGradient>
  </defs>
  <rect width="1200" height="800" fill="url(#bg)"/>
  <circle cx="940" cy="140" r="220" fill="url(#glow)" opacity="0.85"/>
  <circle cx="940" cy="140" r="54" fill="#F5C542"/>
  <g fill="#fff" opacity="0.8">
    <circle cx="80" cy="70" r="1.5"/><circle cx="180" cy="140" r="1"/><circle cx="300" cy="50" r="1.3"/>
    <circle cx="430" cy="110" r="1"/><circle cx="70" cy="240" r="1.2"/><circle cx="250" cy="300" r="1"/>
    <circle cx="520" cy="200" r="1.4"/><circle cx="1100" cy="420" r="1"/><circle cx="980" cy="500" r="1.2"/>
  </g>
  
  <g transform="translate(380 420)">
    <ellipse rx="90" ry="26" fill="#9fb0c4"/>
    <rect x="-14" y="-70" width="28" height="80" rx="6" fill="#d5deea"/>
    <path d="M-40 -30 h80" stroke="#F5C542" stroke-width="4"/>
    <circle cy="-78" r="16" fill="#F5C542"/>
  </g>
  <g transform="translate(620 280) rotate(24)">
    <ellipse rx="70" ry="18" fill="#c5d0de"/>
    <rect x="-10" y="-54" width="20" height="62" rx="5" fill="#e8eef6"/>
  </g>
  <path d="M380 420 Q 540 220 940 160" fill="none" stroke="#F5C542" stroke-width="3" opacity="0.45"/>

</svg>
